<svg width="400" height="400" viewBox="0 0 400 400" fill="none" xmlns="http://www.w3.org/2000/svg">
<circle cx="200" cy="200" r="200" fill="#424D51"/>
<path d="M291.054 175.29L296.638 179.682L302.767 185.081L295.855 219.882L276.924 208.788L274.116 207.302L291.054 175.29Z" fill="#DD6C6C"/>
<path d="M291.054 175.29L296.638 179.682L302.767 185.081L295.855 219.882L276.924 208.788L274.116 207.302L291.054 175.29Z" fill="url(#paint0_linear)"/>
<path d="M246.405 151.665L239.633 149.52L231.721 147.49L206.837 172.782L226.659 182.192L229.467 183.678L246.405 151.665Z" fill="#DD6C6C"/>
<path d="M246.405 151.665L239.633 149.52L231.721 147.49L206.837 172.782L226.659 182.192L229.467 183.678L246.405 151.665Z" fill="url(#paint1_linear)"/>
<path fill-rule="evenodd" clip-rule="evenodd" d="M326.087 40.7095C325.542 40.8376 324.998 41.0137 324.462 41.2403L317.612 44.1325L339.618 55.7763L338.156 48.4861C338.042 47.9148 337.881 47.3664 337.68 46.8434L326.087 40.7095Z" fill="#DD6C6C"/>
<path fill-rule="evenodd" clip-rule="evenodd" d="M326.087 40.7095C325.542 40.8376 324.998 41.0137 324.462 41.2403L317.612 44.1325L339.618 55.7763L338.156 48.4861C338.042 47.9148 337.881 47.3664 337.68 46.8434L326.087 40.7095Z" fill="url(#paint2_linear)"/>
<rect x="216.097" y="213.014" width="47" height="163" transform="rotate(27.8836 216.097 213.014)" fill="#FFF0BC"/>
<rect x="222.284" y="216.288" width="32" height="163" transform="rotate(27.8836 222.284 216.288)" fill="#FED290"/>
<rect x="229.355" y="220.029" width="16" height="163" transform="rotate(27.8836 229.355 220.029)" fill="#FEC590"/>
<rect x="216.097" y="213.014" width="47" height="163" transform="rotate(27.8836 216.097 213.014)" fill="url(#paint3_linear)"/>
<path d="M297.276 55.3756C298.327 53.3895 300.031 51.8273 302.101 50.9533L324.559 41.471C330.242 39.0713 336.698 42.4869 337.911 48.5357L342.705 72.4372C343.147 74.6403 342.815 76.9284 341.764 78.9145L274.412 206.209C271.893 210.969 265.993 212.786 261.234 210.267L233.982 195.848C229.222 193.33 227.405 187.43 229.923 182.67L297.276 55.3756Z" fill="#F7F7F7"/>
<path d="M297.276 55.3756C298.327 53.3895 300.031 51.8273 302.101 50.9533L324.559 41.471C330.242 39.0713 336.698 42.4869 337.911 48.5357L342.705 72.4372C343.147 74.6403 342.815 76.9284 341.764 78.9145L274.412 206.209C271.893 210.969 265.993 212.786 261.234 210.267L233.982 195.848C229.222 193.33 227.405 187.43 229.923 182.67L297.276 55.3756Z" fill="url(#paint4_linear)"/>
<path d="M297.276 55.3756C298.327 53.3895 300.031 51.8273 302.101 50.9533L324.559 41.471C330.242 39.0713 336.698 42.4869 337.911 48.5357L342.705 72.4372C343.147 74.6403 342.815 76.9284 341.764 78.9145L274.412 206.209C271.893 210.969 265.993 212.786 261.234 210.267L233.982 195.848C229.222 193.33 227.405 187.43 229.923 182.67L297.276 55.3756Z" stroke="#7C7C7C" stroke-width="0.5"/>
<path d="M205.971 214.208L226.55 188.774L271.262 212.432L261.812 243.753L205.971 214.208Z" fill="#C4C4C4"/>
<path d="M205.971 214.208L226.55 188.774L271.262 212.432L261.812 243.753L205.971 214.208Z" fill="url(#paint5_linear)"/>
<path d="M205.971 214.208L226.55 188.774L271.262 212.432L261.812 243.753L205.971 214.208Z" stroke="#636D71" stroke-width="0.3"/>
<circle cx="308.225" cy="87.5506" r="10.9972" transform="rotate(27.8836 308.225 87.5506)" fill="#636D71"/>
<circle cx="308.435" cy="87.9383" r="10.9972" transform="rotate(27.8836 308.435 87.9383)" fill="#C4C4C4"/>
<circle cx="308.435" cy="87.938" r="8.5534" transform="rotate(27.8836 308.435 87.938)" fill="#6FBCE7"/>
<path d="M313.398 81.3015C314.716 82.2064 315.539 83.2639 316.232 85.2203L301.426 92.04C300.286 90.5379 300.158 88.9498 300.193 87.4475L313.398 81.3015Z" fill="#CFEEFF"/>
<path d="M316.359 85.6331C316.359 85.6331 316.596 86.5618 316.652 87.1704C317.206 93.1674 307.022 97.6821 302.621 93.5706C302.174 93.1531 302.036 92.8466 302.036 92.8466L316.359 85.6331Z" fill="#CFEEFF"/>
<circle cx="299.82" cy="83.4485" r="0.305478" transform="rotate(27.8836 299.82 83.4485)" fill="#636D71"/>
<circle cx="298.886" cy="90.1818" r="0.305478" transform="rotate(-12.8086 298.886 90.1818)" fill="#636D71"/>
<circle cx="300.476" cy="93.7942" r="0.305478" transform="rotate(-36.0586 300.476 93.7942)" fill="#636D71"/>
<circle cx="298.702" cy="86.7909" r="0.305478" transform="rotate(7.17271 298.702 86.7909)" fill="#636D71"/>
<circle cx="303.832" cy="96.7688" r="0.305478" transform="rotate(27.8836 303.832 96.7688)" fill="#636D71"/>
<circle cx="310.613" cy="97.6662" r="0.305478" transform="rotate(-12.8086 310.613 97.6662)" fill="#636D71"/>
<circle cx="314.204" cy="96.0413" r="0.305478" transform="rotate(-36.0586 314.204 96.0413)" fill="#636D71"/>
<circle cx="307.165" cy="97.8315" r="0.305478" transform="rotate(7.17271 307.165 97.8315)" fill="#636D71"/>
<circle cx="313.032" cy="79.3802" r="0.305478" transform="rotate(27.8836 313.032 79.3802)" fill="#636D71"/>
<circle cx="306.251" cy="78.4826" r="0.305478" transform="rotate(-12.8086 306.251 78.4826)" fill="#636D71"/>
<circle cx="302.625" cy="80.1375" r="0.305478" transform="rotate(-36.0586 302.625 80.1375)" fill="#636D71"/>
<circle cx="309.621" cy="78.3124" r="0.305478" transform="rotate(7.17271 309.621 78.3124)" fill="#636D71"/>
<circle cx="317.215" cy="92.3763" r="0.305478" transform="rotate(27.8836 317.215 92.3763)" fill="#636D71"/>
<circle cx="317.896" cy="85.6096" r="0.305478" transform="rotate(-12.8086 317.896 85.6096)" fill="#636D71"/>
<circle cx="316.137" cy="82.0886" r="0.305478" transform="rotate(-36.0586 316.137 82.0886)" fill="#636D71"/>
<circle cx="318.13" cy="88.9897" r="0.305478" transform="rotate(7.17271 318.13 88.9897)" fill="#636D71"/>
<rect x="226.577" y="185.743" width="53.3732" height="2.54158" rx="1.27079" transform="rotate(27.8836 226.577 185.743)" fill="#636D71"/>
<rect x="247.675" y="145.868" width="53.3732" height="2.54158" rx="1.27079" transform="rotate(27.8836 247.675 145.868)" fill="#636D71"/>
<rect x="270.854" y="102.061" width="53.3732" height="2.54158" rx="1.27079" transform="rotate(27.8836 270.854 102.061)" fill="#636D71"/>
<rect x="297.598" y="51.5146" width="53.3732" height="2.54158" rx="1.27079" transform="rotate(27.8836 297.598 51.5146)" fill="#636D71"/>
<rect x="205.805" y="211.415" width="66.0811" height="2.54158" rx="1.27079" transform="rotate(27.8836 205.805 211.415)" fill="#636D71"/>
<rect x="216.34" y="198.298" width="59.7271" height="2.54158" rx="1.27079" transform="rotate(27.8836 216.34 198.298)" fill="#636D71"/>
<circle cx="281.955" cy="113.686" r="0.635395" transform="rotate(27.8836 281.955 113.686)" fill="#636D71"/>
<circle cx="278.586" cy="111.903" r="0.635395" transform="rotate(27.8836 278.586 111.903)" fill="#636D71"/>
<circle cx="275.216" cy="110.12" r="0.635395" transform="rotate(27.8836 275.216 110.12)" fill="#636D71"/>
<circle cx="271.846" cy="108.337" r="0.635395" transform="rotate(27.8836 271.846 108.337)" fill="#636D71"/>
<circle cx="285.325" cy="115.469" r="0.635395" transform="rotate(27.8836 285.325 115.469)" fill="#636D71"/>
<circle cx="288.695" cy="117.252" r="0.635395" transform="rotate(27.8836 288.695 117.252)" fill="#636D71"/>
<circle cx="292.065" cy="119.035" r="0.635395" transform="rotate(27.8836 292.065 119.035)" fill="#636D71"/>
<circle cx="295.434" cy="120.818" r="0.635395" transform="rotate(27.8836 295.434 120.818)" fill="#636D71"/>
<circle cx="298.804" cy="122.6" r="0.635395" transform="rotate(27.8836 298.804 122.6)" fill="#636D71"/>
<circle cx="302.174" cy="124.384" r="0.635395" transform="rotate(27.8836 302.174 124.384)" fill="#636D71"/>
<circle cx="305.544" cy="126.166" r="0.635395" transform="rotate(27.8836 305.544 126.166)" fill="#636D71"/>
<circle cx="308.913" cy="127.95" r="0.635395" transform="rotate(27.8836 308.913 127.95)" fill="#636D71"/>
<circle cx="312.283" cy="129.732" r="0.635395" transform="rotate(27.8836 312.283 129.732)" fill="#636D71"/>
<circle cx="308.7" cy="63.1395" r="0.635395" transform="rotate(27.8836 308.7 63.1395)" fill="#636D71"/>
<circle cx="305.33" cy="61.3563" r="0.635395" transform="rotate(27.8836 305.33 61.3563)" fill="#636D71"/>
<circle cx="301.96" cy="59.5736" r="0.635395" transform="rotate(27.8836 301.96 59.5736)" fill="#636D71"/>
<circle cx="298.59" cy="57.7904" r="0.635395" transform="rotate(27.8836 298.59 57.7904)" fill="#636D71"/>
<circle cx="312.069" cy="64.9223" r="0.635395" transform="rotate(27.8836 312.069 64.9223)" fill="#636D71"/>
<circle cx="315.439" cy="66.7055" r="0.635395" transform="rotate(27.8836 315.439 66.7055)" fill="#636D71"/>
<circle cx="318.809" cy="68.4882" r="0.635395" transform="rotate(27.8836 318.809 68.4882)" fill="#636D71"/>
<circle cx="322.179" cy="70.2714" r="0.635395" transform="rotate(27.8836 322.179 70.2714)" fill="#636D71"/>
<circle cx="325.549" cy="72.0541" r="0.635395" transform="rotate(27.8836 325.549 72.0541)" fill="#636D71"/>
<circle cx="328.918" cy="73.8373" r="0.635395" transform="rotate(27.8836 328.918 73.8373)" fill="#636D71"/>
<circle cx="332.288" cy="75.62" r="0.635395" transform="rotate(27.8836 332.288 75.62)" fill="#636D71"/>
<circle cx="335.658" cy="77.4032" r="0.635395" transform="rotate(27.8836 335.658 77.4032)" fill="#636D71"/>
<circle cx="339.028" cy="79.1859" r="0.635395" transform="rotate(27.8836 339.028 79.1859)" fill="#636D71"/>
<circle cx="258.777" cy="157.493" r="0.635395" transform="rotate(27.8836 258.777 157.493)" fill="#636D71"/>
<circle cx="255.407" cy="155.71" r="0.635395" transform="rotate(27.8836 255.407 155.71)" fill="#636D71"/>
<circle cx="252.038" cy="153.927" r="0.635395" transform="rotate(27.8836 252.038 153.927)" fill="#636D71"/>
<circle cx="248.668" cy="152.144" r="0.635395" transform="rotate(27.8836 248.668 152.144)" fill="#636D71"/>
<circle cx="262.147" cy="159.276" r="0.635395" transform="rotate(27.8836 262.147 159.276)" fill="#636D71"/>
<circle cx="265.517" cy="161.058" r="0.635395" transform="rotate(27.8836 265.517 161.058)" fill="#636D71"/>
<circle cx="268.886" cy="162.842" r="0.635395" transform="rotate(27.8836 268.886 162.842)" fill="#636D71"/>
<circle cx="272.256" cy="164.624" r="0.635395" transform="rotate(27.8836 272.256 164.624)" fill="#636D71"/>
<circle cx="275.626" cy="166.408" r="0.635395" transform="rotate(27.8836 275.626 166.408)" fill="#636D71"/>
<circle cx="278.996" cy="168.19" r="0.635395" transform="rotate(27.8836 278.996 168.19)" fill="#636D71"/>
<circle cx="282.365" cy="169.974" r="0.635395" transform="rotate(27.8836 282.365 169.974)" fill="#636D71"/>
<circle cx="285.735" cy="171.756" r="0.635395" transform="rotate(27.8836 285.735 171.756)" fill="#636D71"/>
<circle cx="289.105" cy="173.539" r="0.635395" transform="rotate(27.8836 289.105 173.539)" fill="#636D71"/>
<circle cx="241.245" cy="190.628" r="0.635395" transform="rotate(27.8836 241.245 190.628)" fill="#636D71"/>
<circle cx="237.875" cy="188.846" r="0.635395" transform="rotate(27.8836 237.875 188.846)" fill="#636D71"/>
<circle cx="234.505" cy="187.062" r="0.635395" transform="rotate(27.8836 234.505 187.062)" fill="#636D71"/>
<circle cx="231.135" cy="185.28" r="0.635395" transform="rotate(27.8836 231.135 185.28)" fill="#636D71"/>
<circle cx="244.614" cy="192.412" r="0.635395" transform="rotate(27.8836 244.614 192.412)" fill="#636D71"/>
<circle cx="247.984" cy="194.194" r="0.635395" transform="rotate(27.8836 247.984 194.194)" fill="#636D71"/>
<circle cx="251.354" cy="195.977" r="0.635395" transform="rotate(27.8836 251.354 195.977)" fill="#636D71"/>
<circle cx="254.724" cy="197.76" r="0.635395" transform="rotate(27.8836 254.724 197.76)" fill="#636D71"/>
<circle cx="258.093" cy="199.543" r="0.635395" transform="rotate(27.8836 258.093 199.543)" fill="#636D71"/>
<circle cx="261.463" cy="201.326" r="0.635395" transform="rotate(27.8836 261.463 201.326)" fill="#636D71"/>
<circle cx="264.833" cy="203.109" r="0.635395" transform="rotate(27.8836 264.833 203.109)" fill="#636D71"/>
<circle cx="268.203" cy="204.892" r="0.635395" transform="rotate(27.8836 268.203 204.892)" fill="#636D71"/>
<circle cx="271.572" cy="206.675" r="0.635395" transform="rotate(27.8836 271.572 206.675)" fill="#636D71"/>
<path fill-rule="evenodd" clip-rule="evenodd" d="M324.687 41.9374C324.361 42.0424 324.036 42.1653 323.714 42.3065L316.456 45.4894L339.091 57.466L337.545 49.5478C337.483 49.2316 337.407 48.9224 337.318 48.6206L324.687 41.9374Z" fill="#DD6C6C"/>
<path fill-rule="evenodd" clip-rule="evenodd" d="M324.687 41.9374C324.361 42.0424 324.036 42.1653 323.714 42.3065L316.456 45.4894L339.091 57.466L337.545 49.5478C337.483 49.2316 337.407 48.9224 337.318 48.6206L324.687 41.9374Z" fill="url(#paint6_linear)"/>
<circle cx="77" cy="312" r="50" fill="white"/>
<circle cx="77" cy="312" r="50" fill="url(#paint7_linear)"/>
<circle cx="325" cy="335" r="50" fill="white"/>
<circle cx="325" cy="335" r="50" fill="url(#paint8_linear)"/>
<path fill-rule="evenodd" clip-rule="evenodd" d="M290.778 378.259C263.535 392.16 232.683 400 200 400C197.97 400 195.947 399.97 193.932 399.91C192.034 394.628 191 388.935 191 383C191 355.386 213.386 333 241 333C267.015 333 288.39 352.868 290.778 378.259Z" fill="white"/>
<path fill-rule="evenodd" clip-rule="evenodd" d="M290.778 378.259C263.535 392.16 232.683 400 200 400C197.97 400 195.947 399.97 193.932 399.91C192.034 394.628 191 388.935 191 383C191 355.386 213.386 333 241 333C267.015 333 288.39 352.868 290.778 378.259Z" fill="url(#paint9_linear)"/>
<ellipse cx="303.5" cy="375" rx="25.5" ry="25" fill="white"/>
<ellipse cx="303.5" cy="375" rx="25.5" ry="25" fill="url(#paint10_linear)"/>
<path fill-rule="evenodd" clip-rule="evenodd" d="M31.4238 307.666C18.6424 287.695 9.31262 265.303 4.2757 241.331C8.75151 239.193 13.7403 238 19 238C38.33 238 54 254.118 54 274C54 289.382 44.6208 302.511 31.4238 307.666Z" fill="white"/>
<path fill-rule="evenodd" clip-rule="evenodd" d="M31.4238 307.666C18.6424 287.695 9.31262 265.303 4.2757 241.331C8.75151 239.193 13.7403 238 19 238C38.33 238 54 254.118 54 274C54 289.382 44.6208 302.511 31.4238 307.666Z" fill="url(#paint11_linear)"/>
<circle cx="30.5" cy="315.5" r="23.5" fill="white"/>
<circle cx="30.5" cy="315.5" r="23.5" fill="url(#paint12_linear)"/>
<circle cx="109.5" cy="362.5" r="23.5" fill="white"/>
<circle cx="109.5" cy="362.5" r="23.5" fill="url(#paint13_linear)"/>
<path fill-rule="evenodd" clip-rule="evenodd" d="M205.805 399.917C203.877 399.972 201.942 400 200 400C186.396 400 173.109 398.642 160.267 396.053C160.091 394.894 160 393.708 160 392.5C160 379.521 170.521 369 183.5 369C196.479 369 207 379.521 207 392.5C207 395.092 206.58 397.586 205.805 399.917Z" fill="white"/>
<path fill-rule="evenodd" clip-rule="evenodd" d="M205.805 399.917C203.877 399.972 201.942 400 200 400C186.396 400 173.109 398.642 160.267 396.053C160.091 394.894 160 393.708 160 392.5C160 379.521 170.521 369 183.5 369C196.479 369 207 379.521 207 392.5C207 395.092 206.58 397.586 205.805 399.917Z" fill="url(#paint14_linear)"/>
<circle cx="22" cy="244" r="12" fill="white"/>
<circle cx="22" cy="244" r="12" fill="url(#paint15_linear)"/>
<circle cx="266" cy="339" r="12" fill="white"/>
<circle cx="266" cy="339" r="12" fill="url(#paint16_linear)"/>
<circle cx="141" cy="328" r="12" fill="white"/>
<circle cx="141" cy="328" r="12" fill="url(#paint17_linear)"/>
<circle cx="172" cy="364" r="12" fill="white"/>
<circle cx="172" cy="364" r="12" fill="url(#paint18_linear)"/>
<circle cx="122" cy="379" r="12" fill="white"/>
<circle cx="122" cy="379" r="12" fill="url(#paint19_linear)"/>
<circle cx="86.0001" cy="360" r="6" fill="white"/>
<circle cx="86.0001" cy="360" r="6" fill="url(#paint20_linear)"/>
<circle cx="94.0001" cy="322" r="6" fill="white"/>
<circle cx="94.0001" cy="322" r="6" fill="url(#paint21_linear)"/>
<circle cx="68.0001" cy="286" r="6" fill="white"/>
<circle cx="68.0001" cy="286" r="6" fill="url(#paint22_linear)"/>
<circle cx="42.0001" cy="250" r="6" fill="white"/>
<circle cx="42.0001" cy="250" r="6" fill="url(#paint23_linear)"/>
<circle cx="16.0001" cy="214" r="6" fill="white"/>
<circle cx="16.0001" cy="214" r="6" fill="url(#paint24_linear)"/>
<circle cx="110.5" cy="154.5" r="1.5" fill="white"/>
<circle cx="110.5" cy="154.5" r="1.5" fill="url(#paint25_linear)"/>
<circle cx="209.5" cy="99.5" r="1.5" fill="white"/>
<circle cx="209.5" cy="99.5" r="1.5" fill="url(#paint26_linear)"/>
<circle cx="122.5" cy="66.5" r="1.5" fill="white"/>
<circle cx="122.5" cy="66.5" r="1.5" fill="url(#paint27_linear)"/>
<circle cx="61.5001" cy="105.5" r="1.5" fill="white"/>
<circle cx="61.5001" cy="105.5" r="1.5" fill="url(#paint28_linear)"/>
<circle cx="147.5" cy="199.5" r="1.5" fill="white"/>
<circle cx="147.5" cy="199.5" r="1.5" fill="url(#paint29_linear)"/>
<circle cx="233.5" cy="293.5" r="1.5" fill="white"/>
<circle cx="233.5" cy="293.5" r="1.5" fill="url(#paint30_linear)"/>
<circle cx="332.5" cy="267.5" r="1.5" fill="white"/>
<circle cx="332.5" cy="267.5" r="1.5" fill="url(#paint31_linear)"/>
<circle cx="192" cy="345" r="6" fill="white"/>
<circle cx="192" cy="345" r="6" fill="url(#paint32_linear)"/>
<circle cx="159" cy="387" r="12" fill="white"/>
<circle cx="159" cy="387" r="12" fill="url(#paint33_linear)"/>
<circle cx="141" cy="341" r="25" fill="white"/>
<circle cx="141" cy="341" r="25" fill="url(#paint34_linear)"/>
<circle cx="146" cy="372" r="25" fill="white"/>
<circle cx="146" cy="372" r="25" fill="url(#paint35_linear)"/>
<circle cx="203" cy="369" r="25" fill="white"/>
<circle cx="203" cy="369" r="25" fill="url(#paint36_linear)"/>
<circle cx="166" cy="388" r="6" fill="white"/>
<circle cx="166" cy="388" r="6" fill="url(#paint37_linear)"/>
<defs>
<linearGradient id="paint0_linear" x1="302.146" y1="181.158" x2="284.762" y2="214.014" gradientUnits="userSpaceOnUse">
<stop stop-color="#FF5151"/>
<stop offset="1" stop-color="#933131"/>
</linearGradient>
<linearGradient id="paint1_linear" x1="235.313" y1="145.796" x2="217.929" y2="178.651" gradientUnits="userSpaceOnUse">
<stop stop-color="#FF5151"/>
<stop offset="1" stop-color="#933131"/>
</linearGradient>
<linearGradient id="paint2_linear" x1="320.85" y1="41.5329" x2="341.631" y2="52.5278" gradientUnits="userSpaceOnUse">
<stop stop-color="#CA5757"/>
<stop offset="0.40625" stop-color="#F38C8C"/>
<stop offset="1" stop-color="#B43C3C"/>
</linearGradient>
<linearGradient id="paint3_linear" x1="239.597" y1="213.014" x2="239.597" y2="376.014" gradientUnits="userSpaceOnUse">
<stop stop-color="white"/>
<stop offset="0.234375" stop-color="white" stop-opacity="0.765625"/>
<stop offset="1" stop-color="white" stop-opacity="0"/>
</linearGradient>
<linearGradient id="paint4_linear" x1="314.17" y1="146.546" x2="249.583" y2="112.372" gradientUnits="userSpaceOnUse">
<stop stop-color="#ECECEC"/>
<stop offset="0.234375" stop-color="white"/>
<stop offset="0.625" stop-color="white"/>
<stop offset="1" stop-color="#E5E5E5"/>
</linearGradient>
<linearGradient id="paint5_linear" x1="202.09" y1="212.324" x2="264.992" y2="245.606" gradientUnits="userSpaceOnUse">
<stop stop-color="#A6A5A5"/>
<stop offset="0.37934" stop-color="white" stop-opacity="0.541667"/>
<stop offset="1" stop-color="#979797" stop-opacity="0"/>
</linearGradient>
<linearGradient id="paint6_linear" x1="320.072" y1="43.0895" x2="341.589" y2="54.4742" gradientUnits="userSpaceOnUse">
<stop stop-color="#CA5757"/>
<stop offset="0.40625" stop-color="#F38C8C"/>
<stop offset="1" stop-color="#B43C3C"/>
</linearGradient>
<linearGradient id="paint7_linear" x1="77" y1="262" x2="77" y2="362" gradientUnits="userSpaceOnUse">
<stop offset="0.22417" stop-color="white" stop-opacity="0"/>
<stop offset="1" stop-color="#E5E5E5"/>
</linearGradient>
<linearGradient id="paint8_linear" x1="325" y1="285" x2="325" y2="385" gradientUnits="userSpaceOnUse">
<stop offset="0.22417" stop-color="white" stop-opacity="0"/>
<stop offset="1" stop-color="#E5E5E5"/>
</linearGradient>
<linearGradient id="paint9_linear" x1="241" y1="333" x2="241" y2="433" gradientUnits="userSpaceOnUse">
<stop offset="0.22417" stop-color="white" stop-opacity="0"/>
<stop offset="1" stop-color="#E5E5E5"/>
</linearGradient>
<linearGradient id="paint10_linear" x1="303.5" y1="350" x2="303.5" y2="400" gradientUnits="userSpaceOnUse">
<stop offset="0.22417" stop-color="white" stop-opacity="0"/>
<stop offset="1" stop-color="#E5E5E5"/>
</linearGradient>
<linearGradient id="paint11_linear" x1="19.0001" y1="238" x2="19.0001" y2="310" gradientUnits="userSpaceOnUse">
<stop offset="0.22417" stop-color="white" stop-opacity="0"/>
<stop offset="1" stop-color="#E5E5E5"/>
</linearGradient>
<linearGradient id="paint12_linear" x1="30.5" y1="292" x2="30.5" y2="339" gradientUnits="userSpaceOnUse">
<stop offset="0.22417" stop-color="white" stop-opacity="0"/>
<stop offset="1" stop-color="#E5E5E5"/>
</linearGradient>
<linearGradient id="paint13_linear" x1="109.5" y1="339" x2="109.5" y2="386" gradientUnits="userSpaceOnUse">
<stop offset="0.22417" stop-color="white" stop-opacity="0"/>
<stop offset="1" stop-color="#E5E5E5"/>
</linearGradient>
<linearGradient id="paint14_linear" x1="183.5" y1="369" x2="183.5" y2="416" gradientUnits="userSpaceOnUse">
<stop offset="0.22417" stop-color="white" stop-opacity="0"/>
<stop offset="1" stop-color="#E5E5E5"/>
</linearGradient>
<linearGradient id="paint15_linear" x1="22" y1="232" x2="22" y2="256" gradientUnits="userSpaceOnUse">
<stop offset="0.22417" stop-color="white" stop-opacity="0"/>
<stop offset="1" stop-color="#E5E5E5"/>
</linearGradient>
<linearGradient id="paint16_linear" x1="266" y1="327" x2="266" y2="351" gradientUnits="userSpaceOnUse">
<stop offset="0.22417" stop-color="white" stop-opacity="0"/>
<stop offset="1" stop-color="#E5E5E5"/>
</linearGradient>
<linearGradient id="paint17_linear" x1="141" y1="316" x2="141" y2="340" gradientUnits="userSpaceOnUse">
<stop offset="0.22417" stop-color="white" stop-opacity="0"/>
<stop offset="1" stop-color="#E5E5E5"/>
</linearGradient>
<linearGradient id="paint18_linear" x1="172" y1="352" x2="172" y2="376" gradientUnits="userSpaceOnUse">
<stop offset="0.22417" stop-color="white" stop-opacity="0"/>
<stop offset="1" stop-color="#E5E5E5"/>
</linearGradient>
<linearGradient id="paint19_linear" x1="122" y1="367" x2="122" y2="391" gradientUnits="userSpaceOnUse">
<stop offset="0.22417" stop-color="white" stop-opacity="0"/>
<stop offset="1" stop-color="#E5E5E5"/>
</linearGradient>
<linearGradient id="paint20_linear" x1="86.0001" y1="354" x2="86.0001" y2="366" gradientUnits="userSpaceOnUse">
<stop offset="0.22417" stop-color="white" stop-opacity="0"/>
<stop offset="1" stop-color="#E5E5E5"/>
</linearGradient>
<linearGradient id="paint21_linear" x1="94.0001" y1="316" x2="94.0001" y2="328" gradientUnits="userSpaceOnUse">
<stop offset="0.22417" stop-color="white" stop-opacity="0"/>
<stop offset="1" stop-color="#E5E5E5"/>
</linearGradient>
<linearGradient id="paint22_linear" x1="68.0001" y1="280" x2="68.0001" y2="292" gradientUnits="userSpaceOnUse">
<stop offset="0.22417" stop-color="white" stop-opacity="0"/>
<stop offset="1" stop-color="#E5E5E5"/>
</linearGradient>
<linearGradient id="paint23_linear" x1="42.0001" y1="244" x2="42.0001" y2="256" gradientUnits="userSpaceOnUse">
<stop offset="0.22417" stop-color="white" stop-opacity="0"/>
<stop offset="1" stop-color="#E5E5E5"/>
</linearGradient>
<linearGradient id="paint24_linear" x1="16.0001" y1="208" x2="16.0001" y2="220" gradientUnits="userSpaceOnUse">
<stop offset="0.22417" stop-color="white" stop-opacity="0"/>
<stop offset="1" stop-color="#E5E5E5"/>
</linearGradient>
<linearGradient id="paint25_linear" x1="110.5" y1="153" x2="110.5" y2="156" gradientUnits="userSpaceOnUse">
<stop offset="0.22417" stop-color="white" stop-opacity="0"/>
<stop offset="1" stop-color="#E5E5E5"/>
</linearGradient>
<linearGradient id="paint26_linear" x1="209.5" y1="98" x2="209.5" y2="101" gradientUnits="userSpaceOnUse">
<stop offset="0.22417" stop-color="white" stop-opacity="0"/>
<stop offset="1" stop-color="#E5E5E5"/>
</linearGradient>
<linearGradient id="paint27_linear" x1="122.5" y1="65" x2="122.5" y2="68" gradientUnits="userSpaceOnUse">
<stop offset="0.22417" stop-color="white" stop-opacity="0"/>
<stop offset="1" stop-color="#E5E5E5"/>
</linearGradient>
<linearGradient id="paint28_linear" x1="61.5001" y1="104" x2="61.5001" y2="107" gradientUnits="userSpaceOnUse">
<stop offset="0.22417" stop-color="white" stop-opacity="0"/>
<stop offset="1" stop-color="#E5E5E5"/>
</linearGradient>
<linearGradient id="paint29_linear" x1="147.5" y1="198" x2="147.5" y2="201" gradientUnits="userSpaceOnUse">
<stop offset="0.22417" stop-color="white" stop-opacity="0"/>
<stop offset="1" stop-color="#E5E5E5"/>
</linearGradient>
<linearGradient id="paint30_linear" x1="233.5" y1="292" x2="233.5" y2="295" gradientUnits="userSpaceOnUse">
<stop offset="0.22417" stop-color="white" stop-opacity="0"/>
<stop offset="1" stop-color="#E5E5E5"/>
</linearGradient>
<linearGradient id="paint31_linear" x1="332.5" y1="266" x2="332.5" y2="269" gradientUnits="userSpaceOnUse">
<stop offset="0.22417" stop-color="white" stop-opacity="0"/>
<stop offset="1" stop-color="#E5E5E5"/>
</linearGradient>
<linearGradient id="paint32_linear" x1="192" y1="339" x2="192" y2="351" gradientUnits="userSpaceOnUse">
<stop offset="0.22417" stop-color="white" stop-opacity="0"/>
<stop offset="1" stop-color="#E5E5E5"/>
</linearGradient>
<linearGradient id="paint33_linear" x1="159" y1="375" x2="159" y2="399" gradientUnits="userSpaceOnUse">
<stop offset="0.22417" stop-color="white" stop-opacity="0"/>
<stop offset="1" stop-color="#E5E5E5"/>
</linearGradient>
<linearGradient id="paint34_linear" x1="141" y1="316" x2="141" y2="366" gradientUnits="userSpaceOnUse">
<stop offset="0.22417" stop-color="white" stop-opacity="0"/>
<stop offset="1" stop-color="#E5E5E5"/>
</linearGradient>
<linearGradient id="paint35_linear" x1="146" y1="347" x2="146" y2="397" gradientUnits="userSpaceOnUse">
<stop offset="0.22417" stop-color="white" stop-opacity="0"/>
<stop offset="1" stop-color="#E5E5E5"/>
</linearGradient>
<linearGradient id="paint36_linear" x1="203" y1="344" x2="203" y2="394" gradientUnits="userSpaceOnUse">
<stop offset="0.22417" stop-color="white" stop-opacity="0"/>
<stop offset="1" stop-color="#E5E5E5"/>
</linearGradient>
<linearGradient id="paint37_linear" x1="166" y1="382" x2="166" y2="394" gradientUnits="userSpaceOnUse">
<stop offset="0.22417" stop-color="white" stop-opacity="0"/>
<stop offset="1" stop-color="#E5E5E5"/>
</linearGradient>
</defs>
</svg>
